<svg width="60" height="60" viewBox="0 0 60 60" fill="none" xmlns="http://www.w3.org/2000/svg">
  <g filter="url(#filter0_d_956_301)">
    <path d="M34.1667 27.8125H37.5V22.1875H34.1667M40 28.75C40 29.2473 39.8244 29.7242 39.5118 30.0758C39.1993 30.4275 38.7754 30.625 38.3333 30.625H37.0833V33.4375H34.5833V30.625H33.3333C32.8913 30.625 32.4674 30.4275 32.1548 30.0758C31.8423 29.7242 31.6667 29.2473 31.6667 28.75V21.25C31.6667 20.7527 31.8423 20.2758 32.1548 19.9242C32.4674 19.5725 32.8913 19.375 33.3333 19.375H38.3333C38.7754 19.375 39.1993 19.5725 39.5118 19.9242C39.8244 20.2758 40 20.7527 40 21.25M28.3333 30.625H25.8333V26.875H22.5V30.625H20V19.375H22.5V24.0625H25.8333V19.375H28.3333M41.6667 10H18.3333C16.4833 10 15 11.6688 15 13.75V36.25C15 37.2446 15.3512 38.1984 15.9763 38.9016C16.6014 39.6049 17.4493 40 18.3333 40H41.6667C42.5507 40 43.3986 39.6049 44.0237 38.9016C44.6488 38.1984 45 37.2446 45 36.25V13.75C45 12.7554 44.6488 11.8016 44.0237 11.0983C43.3986 10.3951 42.5507 10 41.6667 10Z" fill="white"/>
  </g>
  <defs>
    <filter id="filter0_d_956_301" x="0" y="0" width="60" height="60" filterUnits="userSpaceOnUse" color-interpolation-filters="sRGB">
    <feFlood flood-opacity="0" result="BackgroundImageFix"/>
    <feColorMatrix in="SourceAlpha" type="matrix" values="0 0 0 0 0 0 0 0 0 0 0 0 0 0 0 0 0 0 127 0" result="hardAlpha"/>
    <feOffset dy="5"/>
    <feGaussianBlur stdDeviation="7.5"/>
    <feComposite in2="hardAlpha" operator="out"/>
    <feColorMatrix type="matrix" values="0 0 0 0 0 0 0 0 0 0 0 0 0 0 0 0 0 0 0.5 0"/>
    <feBlend mode="normal" in2="BackgroundImageFix" result="effect1_dropShadow_956_301"/>
    <feBlend mode="normal" in="SourceGraphic" in2="effect1_dropShadow_956_301" result="shape"/>
    </filter>
  </defs>
</svg>
