<svg width="50" height="50" viewBox="0 0 50 50" fill="none" xmlns="http://www.w3.org/2000/svg">
  <g filter="url(#filter0_d_956_295)">
    <path d="M32.125 5C32.9802 4.99987 33.8035 5.40555 34.4286 6.13507C35.0537 6.86458 35.434 7.86352 35.4925 8.93L35.5 9.21875V30.3125C35.4997 30.5468 35.5695 30.7727 35.6958 30.9458C35.822 31.119 35.9956 31.2267 36.1822 31.2479C36.3689 31.2691 36.5551 31.2021 36.7042 31.0602C36.8534 30.9183 36.9546 30.7118 36.988 30.4813L37 30.3125V10.6512C37.7829 10.7607 38.5105 11.209 39.0568 11.9185C39.6031 12.6281 39.9336 13.5541 39.991 14.5363L40 14.8438V28.9062C40.0001 30.4628 39.5237 31.9603 38.6685 33.0917C37.8133 34.2231 36.6442 34.9025 35.401 34.9906L35.125 35H14.875C13.6298 35.0001 12.4318 34.4046 11.5267 33.3356C10.6216 32.2666 10.078 30.8053 10.0075 29.2512L10 28.9062V9.21875C9.99989 8.14976 10.3244 7.12059 10.9081 6.33921C11.4917 5.55784 12.2908 5.08254 13.144 5.00938L13.375 5H32.125ZM20.872 18.125H15.622C15.3236 18.125 15.0375 18.2732 14.8265 18.5369C14.6155 18.8006 14.497 19.1583 14.497 19.5312V26.0938C14.497 26.87 15.001 27.5 15.622 27.5H20.872C21.1704 27.5 21.4565 27.3518 21.6675 27.0881C21.8785 26.8244 21.997 26.4667 21.997 26.0938V19.5312C21.997 19.1583 21.8785 18.8006 21.6675 18.5369C21.4565 18.2732 21.1704 18.125 20.872 18.125ZM29.878 24.6875H26.131L25.978 24.7006C25.6956 24.7492 25.4385 24.9299 25.2586 25.2063C25.0788 25.4827 24.9895 25.8341 25.009 26.1896C25.0284 26.5451 25.155 26.8781 25.3633 27.1213C25.5716 27.3645 25.846 27.4999 26.131 27.5H29.878L30.031 27.4869C30.3134 27.4383 30.5705 27.2576 30.7504 26.9812C30.9302 26.7048 31.0195 26.3534 31 25.9979C30.9806 25.6424 30.854 25.3094 30.6457 25.0662C30.4374 24.823 30.163 24.6876 29.878 24.6875ZM19.747 20.9375V24.6875H16.747V20.9375H19.747ZM29.875 18.125L26.128 18.1344L25.975 18.1456C25.6899 18.1907 25.4294 18.3705 25.247 18.6481C25.0645 18.9257 24.974 19.28 24.994 19.6384C25.0139 19.9968 25.1429 20.332 25.3543 20.5753C25.5657 20.8186 25.8436 20.9516 26.131 20.9469L29.8795 20.9375L30.031 20.9244C30.3135 20.8758 30.5707 20.6949 30.7506 20.4183C30.9305 20.1417 31.0196 19.7901 31 19.4345C30.9804 19.0789 30.8534 18.7458 30.6449 18.5027C30.4363 18.2596 30.1617 18.1246 29.8765 18.125H29.875ZM29.8765 11.57H15.622L15.469 11.5831C15.1866 11.6317 14.9295 11.8124 14.7496 12.0888C14.5698 12.3652 14.4805 12.7166 14.5 13.0721C14.5194 13.4276 14.646 13.7606 14.8543 14.0038C15.0626 14.247 15.337 14.3824 15.622 14.3825H29.878L30.031 14.3713C30.3158 14.3261 30.576 14.1466 30.7584 13.8694C30.9407 13.5922 31.0314 13.2384 31.0118 12.8804C30.9923 12.5224 30.864 12.1872 30.6532 11.9436C30.4424 11.7 30.1651 11.5664 29.878 11.57H29.8765Z" fill="white"/>
  </g>
  <defs>
    <filter id="filter0_d_956_295" x="0" y="0" width="50" height="50" filterUnits="userSpaceOnUse" color-interpolation-filters="sRGB">
      <feFlood flood-opacity="0" result="BackgroundImageFix"/>
      <feColorMatrix in="SourceAlpha" type="matrix" values="0 0 0 0 0 0 0 0 0 0 0 0 0 0 0 0 0 0 127 0" result="hardAlpha"/>
      <feOffset dy="5"/>
      <feGaussianBlur stdDeviation="5"/>
      <feComposite in2="hardAlpha" operator="out"/>
      <feColorMatrix type="matrix" values="0 0 0 0 0 0 0 0 0 0 0 0 0 0 0 0 0 0 0.5 0"/>
      <feBlend mode="normal" in2="BackgroundImageFix" result="effect1_dropShadow_956_295"/>
      <feBlend mode="normal" in="SourceGraphic" in2="effect1_dropShadow_956_295" result="shape"/>
    </filter>
  </defs>
</svg>
