<svg width="50" height="50" viewBox="0 0 50 50" fill="none" xmlns="http://www.w3.org/2000/svg">
  <g filter="url(#filter0_d_956_299)">
    <path d="M16.0759 5L16.1868 6.42885L15.0978 7.35986L16.4932 7.69764L17.0409 9.02065L17.7908 7.80021L19.2123 7.68587L18.2864 6.59415L18.6189 5.20123L17.2953 5.74677L16.0759 5ZM38.3307 5.5671C38.054 5.5671 37.7887 5.67723 37.593 5.87327C37.3973 6.06931 37.2874 6.3352 37.2874 6.61244C37.2874 6.88968 37.3973 7.15557 37.593 7.35161C37.7887 7.54765 38.054 7.65778 38.3307 7.65778C38.6074 7.65778 38.8728 7.54765 39.0684 7.35161C39.2641 7.15557 39.374 6.88968 39.374 6.61244C39.374 6.3352 39.2641 6.06931 39.0684 5.87327C38.8728 5.67723 38.6074 5.5671 38.3307 5.5671ZM23.7115 6.2531C23.4348 6.2531 23.1695 6.36324 22.9738 6.55928C22.7782 6.75532 22.6682 7.0212 22.6682 7.29845C22.6682 7.57569 22.7782 7.84157 22.9738 8.03761C23.1695 8.23365 23.4348 8.34379 23.7115 8.34379C23.9882 8.34379 24.2536 8.23365 24.4493 8.03761C24.6449 7.84157 24.7548 7.57569 24.7548 7.29845C24.7548 7.0212 24.6449 6.75532 24.4493 6.55928C24.2536 6.36324 23.9882 6.2531 23.7115 6.2531ZM35.7029 6.69999C35.103 6.81367 34.5488 7.16908 34.0141 7.63295C33.5185 8.05958 33.0556 8.59075 32.6643 9.16503C31.4384 9.36169 30.2126 9.86215 29.391 10.5455C28.3412 11.4079 27.4087 12.8845 26.9001 14.4068C26.4176 14.6093 25.9611 14.851 25.5895 15.1124C24.5788 15.8245 24.0571 17.19 23.6724 18.3791C23.2877 19.5747 23.0986 20.62 23.0986 20.62L24.2593 20.8291C24.2593 20.8291 24.4353 19.8491 24.7874 18.7449C25.1461 17.6408 25.7525 16.4387 26.2676 16.0793C26.3524 16.0205 26.4632 15.9552 26.561 15.8964C26.5219 16.2688 26.5219 16.6412 26.5806 16.994C26.698 17.7388 27.1022 18.4509 27.8195 18.8364C28.3281 19.1108 28.9019 19.0455 29.3845 18.8495C29.867 18.6469 30.2973 18.3137 30.669 17.9217C31.0407 17.5297 31.3472 17.0659 31.5297 16.5759C31.7123 16.0858 31.7775 15.5305 31.5428 15.0144H31.5363C31.2819 14.4656 30.7929 14.1128 30.2713 13.9625C29.7496 13.8122 29.1888 13.8188 28.6281 13.9037C28.5303 13.9168 28.439 13.9494 28.3412 13.969C28.8237 12.9368 29.5149 11.9633 30.1343 11.4471C30.5386 11.1139 31.2167 10.7938 31.9405 10.5586C31.8492 10.8069 31.7775 11.0551 31.7449 11.3099C31.6406 11.9959 31.7906 12.7408 32.3383 13.2504C32.736 13.6162 33.2707 13.675 33.7402 13.5966C34.2032 13.5182 34.6531 13.3092 35.0574 13.0413C35.4617 12.7669 35.8203 12.4272 36.0746 12.0286C36.3289 11.6301 36.4984 11.1205 36.3354 10.6109V10.6043C36.1202 9.94643 35.5856 9.49432 34.9922 9.28002C34.7379 9.18855 34.4705 9.13694 34.1967 9.10623C34.3858 8.89324 34.5814 8.69398 34.777 8.52345C35.2204 8.14191 35.6703 7.90278 35.9246 7.85509L35.7029 6.69999ZM19.4731 8.98994L18.482 9.61453L20.7316 13.2242L17.054 13.4137L18.7819 17.19L19.8513 16.6935L18.8406 14.4982L22.7921 14.2957L19.4731 8.98994ZM33.5837 10.2515C33.9815 10.245 34.3336 10.2907 34.5944 10.3887C34.9465 10.5129 35.1226 10.6697 35.2139 10.9637C35.24 11.0355 35.2269 11.1793 35.09 11.3949C34.9465 11.617 34.6922 11.8653 34.4053 12.0613C34.1119 12.2573 33.7859 12.3945 33.5446 12.4337C33.2968 12.4794 33.186 12.4337 33.1338 12.388C32.9056 12.1789 32.8404 11.9175 32.9056 11.4798C32.9577 11.127 33.1208 10.7023 33.362 10.2646C33.4403 10.2646 33.512 10.2515 33.5837 10.2515ZM14.269 11.5125C13.9923 11.5125 13.727 11.6226 13.5313 11.8187C13.3357 12.0147 13.2257 12.2806 13.2257 12.5578C13.2257 12.8351 13.3357 13.1009 13.5313 13.297C13.727 13.493 13.9923 13.6032 14.269 13.6032C14.4061 13.6032 14.5418 13.5763 14.6685 13.5238C14.7951 13.4713 14.9102 13.3943 15.0072 13.2972C15.1041 13.2001 15.181 13.0849 15.2335 12.958C15.286 12.8311 15.313 12.6952 15.313 12.5578C15.313 12.4205 15.286 12.2845 15.2335 12.1576C15.181 12.0308 15.1041 11.9155 15.0072 11.8184C14.9102 11.7213 14.7951 11.6444 14.6685 11.5919C14.5418 11.5394 14.4061 11.5124 14.269 11.5125ZM37.4896 13.9429L36.5506 15.0274L35.1291 14.9098L35.8725 16.1381L35.3182 17.4579L36.7136 17.1312L37.796 18.0655L37.9199 16.6347L39.1393 15.8898L37.8221 15.3345L37.4896 13.9429ZM29.4366 15.0209C29.6257 15.0274 29.8018 15.0536 29.9387 15.0928C30.2191 15.1712 30.3691 15.2888 30.4734 15.5109C30.5321 15.635 30.5386 15.8637 30.4278 16.1643C30.3169 16.4713 30.0887 16.8241 29.8148 17.1181C29.5409 17.4121 29.2084 17.6473 28.9345 17.7584C28.6607 17.8695 28.4911 17.8629 28.3803 17.8041H28.3738C27.9956 17.5951 27.813 17.2945 27.7413 16.8111C27.6761 16.3995 27.7217 15.8768 27.8586 15.3149C28.1781 15.2038 28.4977 15.1124 28.8041 15.0666C29.0323 15.034 29.241 15.0209 29.4366 15.0209ZM16.2389 18.4117C15.7694 18.3987 15.476 18.5097 15.2934 18.6927C15.1108 18.8756 15 19.1696 15.013 19.64C15.0261 20.1169 15.1826 20.7442 15.4825 21.4432C16.0824 22.8479 17.2626 24.54 18.8472 26.1342C20.4317 27.7218 22.127 28.8978 23.529 29.4989C24.2201 29.7994 24.8461 29.9562 25.3221 29.9693C25.7981 29.9889 26.085 29.8713 26.2676 29.6884C26.4502 29.5054 26.5676 29.218 26.548 28.741C26.535 28.2641 26.3785 27.6369 26.0785 26.9378C25.4786 25.5397 24.3049 23.841 22.7204 22.2534C21.1359 20.6592 19.4405 19.4832 18.0386 18.8821C17.3409 18.5816 16.7149 18.4248 16.2389 18.4117ZM31.3667 20.4567L29.2149 23.9847L27.3174 22.1619L26.5089 23.0112L29.4497 25.8402L31.6536 22.2338L34.1771 24.344L40 21.8483L39.5436 20.7638L34.3727 22.9851L31.3667 20.4567ZM14.1673 21.2864L13.0171 25.0693C15.7173 28.2771 18.8667 30.0804 22.2835 31.2564L23.692 30.8252C23.4898 30.7533 23.2746 30.6684 23.0595 30.5769C21.4684 29.8974 19.6883 28.643 18.019 26.9639C16.3432 25.2849 15.0913 23.5012 14.4105 21.9071C14.3186 21.698 14.2377 21.489 14.1673 21.2864ZM12.6141 26.3955L11.7006 29.4009C13.5844 31.1649 15.5477 31.962 17.6082 32.6806L20.4382 31.8182C17.6213 30.6684 14.9609 28.9893 12.6141 26.3955ZM32.0709 26.4739C31.7942 26.4739 31.5289 26.5841 31.3332 26.7801C31.1376 26.9761 31.0276 27.242 31.0276 27.5193C31.0276 27.7965 31.1376 28.0624 31.3332 28.2584C31.5289 28.4545 31.7942 28.5646 32.0709 28.5646C32.3476 28.5646 32.613 28.4545 32.8087 28.2584C33.0043 28.0624 33.1142 27.7965 33.1142 27.5193C33.1142 27.242 33.0043 26.9761 32.8087 26.7801C32.613 26.5841 32.3476 26.4739 32.0709 26.4739ZM11.323 30.6488L10 35L15.7564 33.2425C14.2716 32.648 12.7713 31.8901 11.323 30.6488Z" fill="white"/>
  </g>
  <defs>
    <filter id="filter0_d_956_299" x="0" y="0" width="50" height="50" filterUnits="userSpaceOnUse" color-interpolation-filters="sRGB">
      <feFlood flood-opacity="0" result="BackgroundImageFix"/>
      <feColorMatrix in="SourceAlpha" type="matrix" values="0 0 0 0 0 0 0 0 0 0 0 0 0 0 0 0 0 0 127 0" result="hardAlpha"/>
      <feOffset dy="5"/>
      <feGaussianBlur stdDeviation="5"/>
      <feComposite in2="hardAlpha" operator="out"/>
      <feColorMatrix type="matrix" values="0 0 0 0 0 0 0 0 0 0 0 0 0 0 0 0 0 0 0.5 0"/>
      <feBlend mode="normal" in2="BackgroundImageFix" result="effect1_dropShadow_956_299"/>
      <feBlend mode="normal" in="SourceGraphic" in2="effect1_dropShadow_956_299" result="shape"/>
    </filter>
  </defs>
</svg>
