<svg width="50" height="50" viewBox="0 0 50 50" fill="none" xmlns="http://www.w3.org/2000/svg">
  <g filter="url(#filter0_d_956_321)">
    <path d="M25 35C33.2852 35 40 28.2852 40 20C40 11.7148 33.2852 5 25 5C16.7148 5 10 11.7148 10 20C10 28.2852 16.7148 35 25 35ZM19.6152 24.0723C20.6641 25.2852 22.457 26.5625 25 26.5625C27.543 26.5625 29.3359 25.2852 30.3848 24.0723C30.7246 23.6797 31.3164 23.6387 31.709 23.9785C32.1016 24.3184 32.1426 24.9102 31.8027 25.3027C30.4961 26.8027 28.2285 28.4375 25 28.4375C21.7715 28.4375 19.5039 26.8027 18.1973 25.3027C17.8574 24.9102 17.8984 24.3184 18.291 23.9785C18.6836 23.6387 19.2754 23.6797 19.6152 24.0723ZM22.2109 17.1875C22.2109 18.2246 21.373 19.0625 20.3359 19.0625C19.2988 19.0625 18.4609 18.2246 18.4609 17.1875C18.4609 16.1504 19.2988 15.3125 20.3359 15.3125C21.373 15.3125 22.2109 16.1504 22.2109 17.1875ZM27.625 18.6875C27.3145 19.1035 26.7285 19.1855 26.3125 18.875C25.8965 18.5645 25.8145 17.9785 26.125 17.5625C27.9062 15.1895 31.4688 15.1895 33.25 17.5625C33.5605 17.9785 33.4785 18.5645 33.0625 18.875C32.6465 19.1855 32.0605 19.1035 31.75 18.6875C30.7188 17.3105 28.6562 17.3105 27.625 18.6875Z" fill="white"/>
  </g>
  <defs>
    <filter id="filter0_d_956_321" x="0" y="0" width="50" height="50" filterUnits="userSpaceOnUse" color-interpolation-filters="sRGB">
      <feFlood flood-opacity="0" result="BackgroundImageFix"/>
      <feColorMatrix in="SourceAlpha" type="matrix" values="0 0 0 0 0 0 0 0 0 0 0 0 0 0 0 0 0 0 127 0" result="hardAlpha"/>
      <feOffset dy="5"/>
      <feGaussianBlur stdDeviation="5"/>
      <feComposite in2="hardAlpha" operator="out"/>
      <feColorMatrix type="matrix" values="0 0 0 0 0 0 0 0 0 0 0 0 0 0 0 0 0 0 0.5 0"/>
      <feBlend mode="normal" in2="BackgroundImageFix" result="effect1_dropShadow_956_321"/>
      <feBlend mode="normal" in="SourceGraphic" in2="effect1_dropShadow_956_321" result="shape"/>
    </filter>
  </defs>
</svg>
